<svg width="30" height="30" viewBox="0 0 30 30" fill="none" xmlns="http://www.w3.org/2000/svg">
<path d="M6.78994 3.53516H22.9142V26.4641H20.5473V15.9612H20.5241C20.2625 13.0584 17.823 10.7837 14.8521 10.7837C11.8812 10.7837 9.44161 13.0584 9.18002 15.9612H9.15681V26.4641H6.78994V3.53516Z" fill="white"/>
<path d="M2.5 6.78959L3.46154 10.044H4.27515V23.2097C3.86665 23.2097 3.5355 23.5409 3.5355 23.9494V24.8369H3.38757C2.97908 24.8369 2.64793 25.1681 2.64793 25.5766V26.4641H10.932V25.5766C10.932 25.1681 10.6008 24.8369 10.1923 24.8369H10.0444V23.9494C10.0444 23.5409 9.71323 23.2097 9.30473 23.2097H8.41716V6.78959H2.5Z" fill="white"/>
<path d="M20.6953 23.2097C20.2868 23.2097 19.9556 23.5409 19.9556 23.9494V24.8369H19.8077C19.3992 24.8369 19.068 25.1681 19.068 25.5766V26.4641H27.3521V25.5766C27.3521 25.1681 27.0209 24.8369 26.6124 24.8369H26.4645V23.9494C26.4645 23.5409 26.1333 23.2097 25.7249 23.2097V10.044H26.5385L27.5 6.78959H21.5828V23.2097H20.6953Z" fill="white"/>
</svg>